<?xml version="1.0" standalone="no"?>
<!DOCTYPE svg PUBLIC "-//W3C//DTD SVG 20010904//EN"
 "http://www.w3.org/TR/2001/REC-SVG-20010904/DTD/svg10.dtd">
<svg version="1.0" xmlns="http://www.w3.org/2000/svg"
 width="849.000000pt" height="849.000000pt" viewBox="0 0 849.000000 849.000000"
 preserveAspectRatio="xMidYMid meet">
<metadata>
Created by potrace 1.11, written by Peter Selinger 2001-2013
</metadata>
<g transform="translate(0.000000,849.000000) scale(0.100000,-0.100000)"
fill="#000000" stroke="none">
<path d="M2844 4248 l-430 -1713 104 -3 c58 -1 106 -1 107 0 2 2 61 243 131
536 l129 532 489 -2 489 -3 67 -275 c37 -151 96 -391 130 -532 l63 -258 109 0
c100 0 109 2 104 18 -3 9 -190 773 -416 1697 -226 924 -413 1688 -416 1698 -5
15 -19 17 -118 17 l-112 0 -430 -1712z m746 496 c110 -468 200 -854 200 -858
0 -3 -190 -6 -421 -6 -396 0 -421 1 -417 18 3 9 99 403 214 875 137 566 211
852 216 840 5 -10 98 -401 208 -869z"/>
<path d="M4500 5820 l0 -140 655 0 c360 0 655 -3 655 -6 0 -3 -315 -645 -700
-1427 l-700 -1420 0 -149 0 -148 830 0 830 0 0 140 0 140 -718 2 -718 3 703
1425 702 1425 1 148 0 147 -770 0 -770 0 0 -140z"/>
<path d="M2920 1980 c0 -263 0 -270 20 -270 20 0 20 7 20 270 0 263 0 270 -20
270 -20 0 -20 -7 -20 -270z"/>
<path d="M4460 2215 c0 -28 4 -35 20 -35 16 0 20 7 20 35 0 28 -4 35 -20 35
-16 0 -20 -7 -20 -35z"/>
<path d="M5380 2215 c0 -28 4 -35 20 -35 16 0 20 7 20 35 0 28 -4 35 -20 35
-16 0 -20 -7 -20 -35z"/>
<path d="M2595 2096 c-38 -15 -74 -49 -75 -73 0 -6 -3 -18 -6 -27 -5 -12 0
-16 19 -16 19 0 26 6 30 30 13 64 151 83 189 26 13 -18 9 -73 -5 -85 -8 -6
-49 -16 -92 -22 -126 -17 -155 -40 -155 -122 0 -34 6 -50 26 -70 51 -51 154
-46 210 10 34 34 34 34 34 9 0 -27 25 -46 59 -46 28 0 28 36 1 43 -19 5 -20
14 -20 130 0 137 -9 178 -47 202 -35 23 -119 29 -168 11z m150 -300 c-21 -31
-73 -56 -119 -56 -63 0 -104 59 -76 109 12 24 49 38 135 54 l70 12 3 -47 c2
-31 -3 -56 -13 -72z"/>
<path d="M3176 2100 c-70 -21 -116 -99 -116 -200 0 -140 79 -214 207 -195 53
8 96 44 118 98 15 37 15 37 -10 37 -16 0 -25 -6 -25 -16 0 -9 -15 -31 -34 -50
-28 -28 -42 -34 -76 -34 -57 0 -104 30 -124 80 -29 72 -33 70 134 70 l150 0 0
23 c0 46 -30 123 -58 150 -44 42 -104 55 -166 37z m129 -62 c24 -22 38 -45 42
-70 l6 -38 -127 0 c-123 0 -127 1 -122 20 3 11 8 29 11 39 3 11 22 34 41 50
49 44 101 43 149 -1z"/>
<path d="M4685 2095 c-51 -18 -75 -48 -75 -94 0 -50 27 -77 98 -96 131 -37
152 -50 152 -97 0 -59 -110 -89 -177 -48 -18 11 -35 31 -39 45 -4 16 -13 25
-25 25 -50 0 4 -95 66 -117 120 -43 247 36 215 133 -15 44 -37 58 -135 83
-111 28 -141 66 -90 116 46 47 151 25 170 -35 8 -26 45 -27 45 -1 0 27 -39 71
-76 87 -42 17 -78 17 -129 -1z"/>
<path d="M5065 2095 c-51 -18 -75 -48 -75 -94 0 -50 27 -77 98 -96 131 -37
152 -50 152 -97 0 -59 -110 -89 -177 -48 -18 11 -35 31 -39 45 -4 16 -13 25
-25 25 -50 0 4 -95 66 -117 120 -43 247 36 215 133 -15 44 -37 58 -135 83
-111 28 -141 66 -90 116 46 47 151 25 170 -35 8 -26 45 -27 45 -1 0 27 -39 71
-76 87 -42 17 -78 17 -129 -1z"/>
<path d="M5605 2095 c-51 -18 -75 -48 -75 -94 0 -50 27 -77 98 -96 131 -37
152 -50 152 -97 0 -59 -110 -89 -177 -48 -18 11 -35 31 -39 45 -4 16 -13 25
-25 25 -50 0 4 -95 66 -117 120 -43 247 36 215 133 -15 44 -37 58 -135 83
-111 28 -141 66 -90 116 46 47 151 25 170 -35 8 -26 45 -27 45 -1 0 27 -39 71
-76 87 -42 17 -78 17 -129 -1z"/>
<path d="M3460 2094 c0 -3 26 -40 58 -82 32 -42 62 -82 66 -89 4 -7 -22 -51
-64 -108 -38 -52 -70 -97 -70 -100 0 -3 11 -5 24 -5 20 0 37 17 82 80 32 44
60 80 63 80 3 -1 32 -37 64 -80 51 -69 63 -80 88 -80 l30 0 -76 100 c-46 61
-73 105 -69 113 4 6 34 47 66 89 32 42 58 79 58 82 0 3 -11 6 -24 6 -19 0 -37
-17 -79 -75 l-55 -75 -56 75 c-44 58 -62 75 -81 75 -14 0 -25 -3 -25 -6z"/>
<path d="M4080 2080 c0 -18 8 -20 116 -22 l116 -3 -126 -155 c-69 -85 -126
-163 -126 -172 0 -17 13 -18 160 -18 153 0 160 1 160 20 0 18 -8 20 -129 22
l-130 3 125 154 c68 84 124 162 124 172 0 18 -10 19 -145 19 -138 0 -145 -1
-145 -20z"/>
<path d="M4460 1900 c0 -183 1 -190 20 -190 19 0 20 7 20 190 0 183 -1 190
-20 190 -19 0 -20 -7 -20 -190z"/>
<path d="M5380 1900 c0 -183 1 -190 20 -190 19 0 20 7 20 190 0 183 -1 190
-20 190 -19 0 -20 -7 -20 -190z"/>
</g>
</svg>
